<?xml version="1.0" standalone="no"?>
<!DOCTYPE svg PUBLIC "-//W3C//DTD SVG 20010904//EN"
 "http://www.w3.org/TR/2001/REC-SVG-20010904/DTD/svg10.dtd">
<svg version="1.0" xmlns="http://www.w3.org/2000/svg"
 width="259.000000pt" height="628.000000pt" viewBox="0 0 259.000000 628.000000"
 preserveAspectRatio="xMidYMid meet">

<g transform="translate(0.000000,628.000000) scale(0.100000,-0.100000)"
fill="#000000" stroke="none">
<path d="M0 5814 l0 -466 23 6 c12 3 595 6 1295 6 l1272 0 0 460 0 460 -1295
0 -1295 0 0 -466z m1080 414 c134 -68 127 -257 -11 -312 -46 -19 -60 -15 -35
9 38 39 65 83 80 134 9 29 13 57 10 62 -10 17 -22 9 -28 -22 -9 -44 -40 -84
-82 -104 -29 -13 -50 -16 -99 -10 -60 6 -64 8 -74 37 -16 44 -14 73 8 121 23
50 44 70 91 91 49 21 89 20 140 -6z m-430 -58 c0 -11 -7 -20 -15 -20 -8 0 -15
-4 -15 -10 0 -5 7 -10 15 -10 8 0 15 -9 15 -20 0 -11 -7 -23 -15 -26 -11 -4
-15 -21 -15 -56 0 -46 -2 -49 -22 -46 -20 3 -23 10 -26 51 -2 26 -7 47 -13 47
-5 0 -9 11 -9 25 0 14 4 25 8 25 4 0 13 14 19 30 9 24 17 30 42 30 24 0 31 -4
31 -20z m773 8 c-4 -7 -6 -21 -4 -31 1 -10 -5 -27 -15 -38 -16 -18 -16 -20 4
-42 26 -28 28 -44 5 -69 -19 -21 -82 -25 -101 -6 -21 21 -13 48 18 66 36 20
37 24 8 37 -32 14 -36 58 -6 79 28 20 103 22 91 4z m69 -36 c-7 -2 -12 -10
-12 -18 0 -8 -4 -14 -10 -14 -5 0 -10 7 -10 15 0 8 -7 15 -15 15 -8 0 -15 5
-15 10 0 6 7 10 15 10 8 0 15 8 15 17 0 14 4 12 22 -7 15 -16 18 -25 10 -28z
m-1357 -22 c14 -22 28 -40 31 -40 4 0 4 18 1 40 -5 40 -5 40 28 40 33 0 34 -2
37 -42 l3 -43 28 43 c20 30 34 42 52 42 35 0 39 -15 13 -59 l-23 -40 23 -23
c12 -14 22 -30 22 -36 0 -21 -62 -14 -87 10 l-24 22 -6 -22 c-8 -31 -53 -29
-93 4 -34 29 -84 119 -75 134 14 22 46 8 70 -30z m1077 -252 c-17 -17 -17
-359 0 -376 9 -9 -32 -12 -188 -12 -142 0 -203 3 -212 12 -17 17 -17 359 0
376 9 9 70 12 212 12 156 0 197 -3 188 -12z m-562 -98 c0 -11 -7 -20 -15 -20
-8 0 -15 -4 -15 -9 0 -5 7 -11 15 -15 8 -3 15 -12 15 -21 0 -9 -7 -18 -15 -21
-11 -4 -15 -21 -15 -56 0 -46 -2 -49 -22 -46 -20 3 -23 10 -26 51 -2 26 -7 47
-13 47 -5 0 -9 11 -9 25 0 14 4 25 8 25 4 0 13 14 19 30 9 24 17 30 42 30 24
0 31 -4 31 -20z m773 8 c-4 -7 -6 -21 -4 -31 1 -10 -5 -27 -14 -37 -16 -18
-16 -21 4 -46 25 -32 26 -42 4 -66 -19 -21 -82 -25 -101 -6 -21 21 -13 48 18
66 36 21 37 26 5 40 -32 15 -34 55 -3 76 28 20 103 22 91 4z m69 -36 c-7 -2
-12 -10 -12 -18 0 -8 -4 -14 -10 -14 -5 0 -10 7 -10 15 0 8 -7 15 -15 15 -8 0
-15 5 -15 10 0 6 7 10 15 10 8 0 15 8 15 17 0 14 4 12 22 -7 15 -16 18 -25 10
-28z m-1357 -22 c14 -22 28 -40 31 -40 4 0 4 18 1 40 -5 40 -5 40 28 40 33 0
34 -2 37 -42 l3 -43 28 43 c20 30 34 42 52 42 35 0 39 -15 13 -59 l-23 -40 23
-23 c12 -14 22 -30 22 -36 0 -21 -62 -14 -87 10 l-24 22 -6 -22 c-7 -30 -53
-29 -90 2 -34 28 -87 121 -78 136 14 22 46 9 70 -30z"/>
<path d="M855 6113 c2 -10 4 -30 4 -44 2 -42 23 -63 57 -55 24 6 26 9 12 17
-18 10 -48 64 -48 86 0 7 -6 13 -14 13 -8 0 -13 -8 -11 -17z"/>
<path d="M1343 6154 c-8 -20 9 -49 28 -49 18 0 24 32 9 50 -16 20 -29 19 -37
-1z"/>
<path d="M1337 6044 c-4 -4 -7 -16 -7 -26 0 -14 8 -18 36 -18 31 0 35 3 32 23
-2 15 -11 23 -28 25 -14 2 -29 0 -33 -4z"/>
<path d="M1100 5716 c0 -31 -31 -86 -62 -108 -18 -12 -53 -23 -87 -27 -63 -7
-74 -25 -30 -50 36 -20 101 -1 144 43 37 36 65 130 46 149 -8 8 -11 6 -11 -7z"/>
<path d="M873 5671 c6 -52 18 -65 47 -56 l22 7 -21 15 c-12 8 -21 20 -21 26 0
7 -8 21 -16 32 -15 19 -16 18 -11 -24z"/>
<path d="M1343 5754 c-8 -20 9 -49 28 -49 18 0 24 32 9 50 -16 20 -29 19 -37
-1z"/>
<path d="M1337 5644 c-4 -4 -7 -16 -7 -26 0 -14 8 -18 36 -18 31 0 35 3 32 23
-2 15 -11 23 -28 25 -14 2 -29 0 -33 -4z"/>
<path d="M18 5233 c-16 -4 -18 -18 -18 -105 0 -99 0 -100 22 -94 13 3 596 6
1296 6 l1272 0 0 100 0 100 -1277 -1 c-703 -1 -1286 -3 -1295 -6z"/>
<path d="M26 4833 c-28 -5 -28 -5 -24 -69 3 -54 9 -69 31 -92 55 -55 148 -23
163 55 l7 35 17 -39 c25 -54 54 -78 100 -78 46 0 84 31 102 82 16 45 23 42 23
-12 1 -61 37 -100 94 -100 41 0 91 34 91 62 0 7 5 13 10 13 6 0 10 10 11 23
l1 22 6 -22 c9 -30 55 -63 86 -63 35 0 86 38 86 64 0 19 8 19 880 13 l880 -7
0 60 0 60 -246 0 c-207 0 -245 -2 -241 -14 4 -10 -4 -15 -28 -18 -26 -3 -35 0
-38 14 -5 17 -51 18 -994 17 -543 -1 -1001 -4 -1017 -6z m323 -14 c17 -6 38
-23 46 -38 12 -24 12 -28 -6 -39 -25 -16 -100 -15 -132 1 -23 12 -24 15 -12
37 7 14 26 30 42 37 15 7 28 12 29 13 1 0 15 -5 33 -11z m318 -2 c-5 -15 -189
-16 -194 -1 -2 5 40 10 98 11 74 1 99 -1 96 -10z m1099 1 c5 -7 0 -9 -14 -6
-12 3 -23 1 -25 -5 -2 -6 -6 -3 -10 6 -5 13 -1 17 18 17 13 0 27 -5 31 -12z
m478 3 c3 -5 -5 -11 -18 -13 -17 -4 -23 -1 -19 9 6 15 29 18 37 4z m-2102 -31
c21 0 31 -7 38 -26 6 -14 10 -27 10 -30 0 -2 -41 -4 -91 -4 -89 0 -90 0 -84
23 4 12 19 32 34 43 23 19 28 20 46 8 11 -8 32 -14 47 -14z m666 -16 c2 -1 1
-12 -3 -23 -12 -39 -125 -23 -125 17 0 17 63 29 95 19 17 -6 32 -11 33 -13z
m-207 -11 c9 -10 20 -28 24 -40 6 -23 5 -23 -85 -23 -90 0 -91 0 -84 23 9 31
35 59 51 53 7 -3 15 -1 18 5 9 14 56 3 76 -18z m1119 7 c0 -7 -155 -10 -445
-10 -290 0 -445 3 -445 10 0 7 155 10 445 10 290 0 445 -3 445 -10z m498 3
c-10 -2 -26 -2 -35 0 -10 3 -2 5 17 5 19 0 27 -2 18 -5z m-2048 -62 c0 -3 -10
-15 -22 -28 -35 -37 -84 -29 -100 17 -4 12 6 15 58 15 35 0 64 -2 64 -4z m640
-4 c0 -7 -14 -21 -32 -31 -30 -18 -32 -18 -65 -1 -54 29 -43 45 32 45 46 0 65
-4 65 -13z m-450 -7 c0 -5 -18 -10 -40 -10 -22 0 -40 5 -40 10 0 6 18 10 40
10 22 0 40 -4 40 -10z m205 -46 c33 22 42 20 20 -4 -20 -22 -64 -27 -83 -8
-21 21 -13 29 13 12 23 -15 27 -15 50 0z"/>
<path d="M267 4774 c-14 -14 6 -24 48 -24 50 0 77 8 69 21 -6 10 -107 12 -117
3z"/>
<path d="M50 4765 c0 -12 13 -15 60 -15 71 0 80 15 14 24 -66 9 -74 8 -74 -9z"/>
<path d="M700 4760 c0 -5 23 -10 51 -10 31 0 48 4 44 10 -3 6 -26 10 -51 10
-24 0 -44 -4 -44 -10z"/>
<path d="M566 4765 c4 -8 11 -15 16 -15 6 0 5 6 -2 15 -7 8 -14 15 -16 15 -2
0 -1 -7 2 -15z"/>
<path d="M495 4760 c-3 -5 -1 -10 4 -10 6 0 11 5 11 10 0 6 -2 10 -4 10 -3 0
-8 -4 -11 -10z"/>
<path d="M528 4753 c6 -2 18 -2 25 0 6 3 1 5 -13 5 -14 0 -19 -2 -12 -5z"/>
<path d="M493 4728 c-5 -9 -3 -10 60 -10 27 0 51 3 54 6 4 3 0 6 -8 7 -81 4
-102 3 -106 -3z"/>
<path d="M65 4690 c3 -5 19 -10 35 -10 16 0 32 5 35 10 4 6 -10 10 -35 10 -25
0 -39 -4 -35 -10z"/>
<path d="M714 4695 c24 -18 34 -18 66 0 24 14 23 14 -30 14 -51 0 -53 -1 -36
-14z"/>
<path d="M670 4660 c0 -5 -5 -9 -12 -7 -17 3 -23 -34 -6 -44 23 -15 27 -10 26
26 -1 19 -3 35 -5 35 -1 0 -3 -4 -3 -10z"/>
<path d="M812 4640 l-1 -35 451 3 c300 2 455 -1 462 -8 7 -7 -155 -10 -517
-10 l-526 0 -17 -32 c-12 -23 -15 -47 -11 -90 3 -32 1 -61 -4 -64 -5 -3 -9
-14 -9 -25 0 -17 -7 -19 -73 -19 -49 0 -80 5 -93 15 -13 10 -46 14 -107 15
-101 0 -117 6 -146 55 -33 56 -28 89 16 120 37 24 42 25 223 27 134 1 163 3
103 7 -45 3 -88 12 -95 19 -9 9 -66 12 -214 12 -125 0 -205 4 -209 10 -3 6
-15 10 -26 10 -18 0 -19 -8 -19 -154 l0 -154 123 5 122 6 -22 -25 c-31 -33
-31 -93 -1 -125 l21 -23 -21 -23 c-31 -33 -30 -96 1 -125 l23 -22 1172 0 1172
0 0 70 0 70 -214 0 -213 0 -27 26 c-34 34 -37 108 -6 141 l20 22 -28 4 c-15 2
84 5 221 6 l247 1 0 155 0 155 -885 -2 c-576 -2 -886 0 -888 7 -2 5 -4 -6 -5
-25z m1100 -370 l-4 -80 -79 0 c-66 0 -82 3 -99 20 -28 28 -27 87 2 117 19 20
31 23 102 23 l81 0 -3 -80z m-403 24 c-24 -29 -30 -17 -20 35 1 2 8 -2 16 -9
12 -10 13 -16 4 -26z m519 6 c0 -16 -4 -32 -9 -35 -5 -4 -3 -15 6 -28 13 -19
13 -23 -2 -39 -20 -22 -56 -23 -73 -3 -15 18 2 45 29 45 12 0 10 5 -9 20 -20
16 -23 22 -14 37 6 10 24 21 40 24 16 4 29 7 30 8 1 0 1 -12 2 -29z m-628 5
c0 -8 -4 -15 -10 -15 -5 0 -10 7 -10 15 0 8 5 15 10 15 6 0 10 -7 10 -15z m30
0 c0 -8 -4 -15 -10 -15 -5 0 -10 7 -10 15 0 8 5 15 10 15 6 0 10 -7 10 -15z
m-645 -5 c5 -8 11 -7 21 1 20 17 42 -4 26 -24 -9 -10 -9 -16 0 -25 9 -9 9 -15
0 -24 -9 -9 -15 -9 -24 0 -9 9 -15 9 -25 0 -19 -16 -43 6 -25 24 8 8 8 15 1
24 -11 14 -4 34 11 34 5 0 12 -5 15 -10z m-489 -38 c-2 -15 -4 -29 -5 -31 0
-2 -10 4 -21 14 -19 17 -19 19 -4 36 21 24 34 16 30 -19z m178 -13 c-9 -10
-20 -16 -25 -14 -6 4 -6 42 0 64 0 2 10 -4 21 -14 19 -17 19 -19 4 -36z m186
16 c0 -33 -2 -35 -35 -35 -33 0 -35 2 -35 35 0 33 2 35 35 35 33 0 35 -2 35
-35z m980 20 c17 -9 30 -18 30 -20 0 -5 -56 -35 -65 -35 -3 0 -5 16 -5 35 0
40 1 40 40 20z m435 -15 c4 -6 1 -17 -5 -25 -9 -11 -15 -12 -25 -2 -9 8 -10
16 -3 25 13 15 25 15 33 2z m-535 -28 c0 -11 9 -27 20 -37 11 -10 20 -22 20
-27 0 -5 -48 -7 -107 -6 l-108 3 -3 28 c-6 53 0 57 93 57 76 0 85 -2 85 -18z
m-727 -114 c18 15 30 3 15 -15 -9 -11 -9 -19 0 -33 14 -22 4 -34 -15 -18 -11
9 -19 9 -33 0 -22 -14 -34 -4 -18 15 9 11 9 19 0 33 -14 23 -5 32 18 18 14 -9
22 -9 33 0z m-153 -33 c0 -33 -2 -35 -35 -35 -33 0 -35 2 -35 35 0 33 2 35 35
35 33 0 35 -2 35 -35z m1000 0 c0 -2 -13 -11 -30 -20 l-30 -16 0 36 0 36 30
-16 c17 -9 30 -18 30 -20z m-1368 13 c-8 -8 -9 -15 -1 -25 7 -8 8 -13 1 -13
-5 0 -14 6 -21 13 -11 14 3 37 23 37 6 0 5 -5 -2 -12z m177 -1 c8 -10 7 -17
-1 -25 -16 -16 -33 -15 -19 1 8 10 7 17 -1 25 -8 8 -8 12 -1 12 6 0 15 -6 22
-13z"/>
<path d="M1977 4303 c-10 -16 11 -39 23 -27 8 8 7 14 -4 23 -8 7 -17 8 -19 4z"/>
<path d="M1965 4220 c-8 -13 20 -24 41 -16 20 8 9 26 -16 26 -10 0 -22 -5 -25
-10z"/>
<path d="M1493 4215 c0 -8 4 -12 9 -9 5 3 6 10 3 15 -9 13 -12 11 -12 -6z"/>
<path d="M2180 4245 l0 -44 38 21 c20 12 38 22 40 24 3 2 -67 44 -74 44 -2 0
-4 -20 -4 -45z"/>
<path d="M0 4113 c1 -26 1 -27 12 -8 6 11 16 23 22 27 6 5 1 8 -11 8 -18 0
-23 -6 -23 -27z"/>
<path d="M0 4015 c0 -8 4 -15 10 -15 5 0 7 7 4 15 -4 8 -8 15 -10 15 -2 0 -4
-7 -4 -15z"/>
<path d="M581 3920 c-8 -26 -15 -30 -45 -30 -42 0 -46 -14 -10 -42 14 -11 23
-25 21 -32 -20 -53 -19 -56 12 -56 35 0 35 1 21 -34 -8 -21 -16 -26 -45 -26
-41 0 -45 -14 -10 -42 25 -20 26 -27 8 -75 -4 -9 5 -13 26 -13 35 0 35 1 21
-34 -8 -21 -16 -26 -45 -26 -41 0 -45 -14 -10 -42 25 -20 26 -27 8 -75 -4 -9
5 -13 26 -13 35 0 35 1 21 -34 -8 -21 -16 -26 -45 -26 -41 0 -45 -14 -10 -42
25 -20 26 -27 8 -75 -4 -10 205 -13 1026 -13 l1031 0 0 380 0 380 -999 0 -999
0 -11 -30z m38 -59 c9 -6 10 -11 2 -15 -6 -4 -9 -11 -7 -15 3 -3 -4 -7 -14 -7
-10 0 -17 4 -14 7 2 4 -1 11 -7 15 -8 4 -7 9 2 15 8 5 16 9 19 9 3 0 11 -4 19
-9z m210 0 c9 -6 10 -11 2 -15 -6 -4 -9 -11 -7 -15 3 -3 -4 -7 -14 -7 -10 0
-17 4 -14 7 2 4 -1 11 -7 15 -8 4 -7 9 2 15 8 5 16 9 19 9 3 0 11 -4 19 -9z
m210 0 c9 -6 10 -11 2 -15 -6 -4 -9 -11 -7 -15 3 -3 -4 -7 -14 -7 -10 0 -17 4
-14 7 2 4 -1 11 -7 15 -8 4 -7 9 2 15 8 5 16 9 19 9 3 0 11 -4 19 -9z m210 0
c9 -6 10 -11 2 -15 -6 -4 -9 -11 -7 -15 3 -3 -4 -7 -14 -7 -10 0 -17 4 -14 7
2 4 -1 11 -7 15 -8 4 -7 9 2 15 8 5 16 9 19 9 3 0 11 -4 19 -9z m210 0 c9 -6
10 -11 2 -15 -6 -4 -9 -11 -7 -15 3 -3 -4 -7 -14 -7 -10 0 -17 4 -14 7 2 4 -1
11 -7 15 -8 4 -7 9 2 15 8 5 16 9 19 9 3 0 11 -4 19 -9z m210 0 c9 -6 10 -11
2 -15 -6 -4 -9 -11 -7 -15 3 -3 -4 -7 -14 -7 -10 0 -17 4 -14 7 2 4 -1 11 -7
15 -8 4 -7 9 2 15 8 5 16 9 19 9 3 0 11 -4 19 -9z m210 0 c9 -6 10 -11 2 -15
-6 -4 -9 -11 -7 -15 3 -3 -4 -7 -14 -7 -10 0 -17 4 -14 7 2 4 -1 11 -7 15 -8
4 -7 9 2 15 8 5 16 9 19 9 3 0 11 -4 19 -9z m210 0 c9 -6 10 -11 2 -15 -6 -4
-9 -11 -7 -15 3 -3 -4 -7 -14 -7 -10 0 -17 4 -14 7 2 4 -1 11 -7 15 -8 4 -7 9
2 15 8 5 16 9 19 9 3 0 11 -4 19 -9z m210 0 c9 -6 10 -11 2 -15 -6 -4 -9 -11
-7 -15 3 -3 -4 -7 -14 -7 -10 0 -17 4 -14 7 2 4 -1 11 -7 15 -8 4 -7 9 2 15 8
5 16 9 19 9 3 0 11 -4 19 -9z m210 0 c9 -6 10 -11 2 -15 -6 -4 -9 -11 -7 -15
3 -3 -4 -7 -14 -7 -10 0 -17 4 -14 7 2 4 -1 11 -7 15 -8 4 -7 9 2 15 8 5 16 9
19 9 3 0 11 -4 19 -9z m-1893 -189 c15 -9 3 -37 -16 -37 -19 0 -31 28 -16 37
6 4 13 8 16 8 3 0 10 -4 16 -8z m210 0 c15 -9 3 -37 -16 -37 -19 0 -31 28 -16
37 6 4 13 8 16 8 3 0 10 -4 16 -8z m210 0 c15 -9 3 -37 -16 -37 -19 0 -31 28
-16 37 6 4 13 8 16 8 3 0 10 -4 16 -8z m210 0 c15 -9 3 -37 -16 -37 -19 0 -31
28 -16 37 6 4 13 8 16 8 3 0 10 -4 16 -8z m210 0 c15 -9 3 -37 -16 -37 -19 0
-31 28 -16 37 6 4 13 8 16 8 3 0 10 -4 16 -8z m210 0 c15 -9 3 -37 -16 -37
-19 0 -31 28 -16 37 6 4 13 8 16 8 3 0 10 -4 16 -8z m210 0 c15 -9 3 -37 -16
-37 -19 0 -31 28 -16 37 6 4 13 8 16 8 3 0 10 -4 16 -8z m210 0 c15 -9 3 -37
-16 -37 -19 0 -31 28 -16 37 6 4 13 8 16 8 3 0 10 -4 16 -8z m210 0 c15 -9 3
-37 -16 -37 -19 0 -31 28 -16 37 6 4 13 8 16 8 3 0 10 -4 16 -8z m210 0 c15
-9 3 -37 -16 -37 -19 0 -31 28 -16 37 6 4 13 8 16 8 3 0 10 -4 16 -8z m-1896
-182 c0 -5 8 -10 18 -10 14 0 14 -2 3 -9 -8 -5 -11 -15 -8 -23 4 -11 -3 -15
-23 -15 -20 0 -27 4 -23 15 3 8 0 18 -8 23 -11 7 -11 9 4 9 9 0 17 5 17 10 0
6 5 10 10 10 6 0 10 -4 10 -10z m210 0 c0 -5 8 -10 18 -10 14 0 14 -2 3 -9 -8
-5 -11 -15 -8 -23 4 -11 -3 -15 -23 -15 -20 0 -27 4 -23 15 3 8 0 18 -8 23
-11 7 -11 9 4 9 9 0 17 5 17 10 0 6 5 10 10 10 6 0 10 -4 10 -10z m210 0 c0
-5 8 -10 18 -10 14 0 14 -2 3 -9 -8 -5 -11 -15 -8 -23 4 -11 -3 -15 -23 -15
-20 0 -27 4 -23 15 3 8 0 18 -8 23 -11 7 -11 9 4 9 9 0 17 5 17 10 0 6 5 10
10 10 6 0 10 -4 10 -10z m210 0 c0 -5 8 -10 18 -10 14 0 14 -2 3 -9 -8 -5 -11
-15 -8 -23 4 -11 -3 -15 -23 -15 -20 0 -27 4 -23 15 3 8 0 18 -8 23 -11 7 -11
9 4 9 9 0 17 5 17 10 0 6 5 10 10 10 6 0 10 -4 10 -10z m210 0 c0 -5 8 -10 18
-10 14 0 14 -2 3 -9 -8 -5 -11 -15 -8 -23 4 -11 -3 -15 -23 -15 -20 0 -27 4
-23 15 3 8 0 18 -8 23 -11 7 -11 9 4 9 9 0 17 5 17 10 0 6 5 10 10 10 6 0 10
-4 10 -10z m210 0 c0 -5 8 -10 18 -10 14 0 14 -2 3 -9 -8 -5 -11 -15 -8 -23 4
-11 -3 -15 -23 -15 -20 0 -27 4 -23 15 3 8 0 18 -8 23 -11 7 -11 9 4 9 9 0 17
5 17 10 0 6 5 10 10 10 6 0 10 -4 10 -10z m210 0 c0 -5 8 -10 18 -10 14 0 14
-2 3 -9 -8 -5 -11 -15 -8 -23 4 -11 -3 -15 -23 -15 -20 0 -27 4 -23 15 3 8 0
18 -8 23 -11 7 -11 9 4 9 9 0 17 5 17 10 0 6 5 10 10 10 6 0 10 -4 10 -10z
m210 0 c0 -5 8 -10 18 -10 14 0 14 -2 3 -9 -8 -5 -11 -15 -8 -23 4 -11 -3 -15
-23 -15 -20 0 -27 4 -23 15 3 8 0 18 -8 23 -11 7 -11 9 4 9 9 0 17 5 17 10 0
6 5 10 10 10 6 0 10 -4 10 -10z m210 0 c0 -5 8 -10 18 -10 14 0 14 -2 3 -9 -8
-5 -11 -15 -8 -23 4 -11 -3 -15 -23 -15 -20 0 -27 4 -23 15 3 8 0 18 -8 23
-11 7 -11 9 4 9 9 0 17 5 17 10 0 6 5 10 10 10 6 0 10 -4 10 -10z m210 0 c0
-5 8 -10 18 -10 14 0 14 -2 3 -9 -8 -5 -11 -15 -8 -23 4 -11 -3 -15 -23 -15
-20 0 -27 4 -23 15 3 8 0 18 -8 23 -11 7 -11 9 4 9 9 0 17 5 17 10 0 6 5 10
10 10 6 0 10 -4 10 -10z m-1890 -190 c0 -5 8 -10 18 -11 10 0 12 -3 5 -6 -7
-2 -13 -11 -13 -19 0 -8 -9 -14 -20 -14 -11 0 -20 6 -20 14 0 8 -6 17 -12 19
-8 3 -6 6 5 6 9 1 17 6 17 11 0 6 5 10 10 10 6 0 10 -4 10 -10z m210 0 c0 -5
8 -10 18 -11 10 0 12 -3 5 -6 -7 -2 -13 -11 -13 -19 0 -8 -9 -14 -20 -14 -11
0 -20 6 -20 14 0 8 -6 17 -12 19 -8 3 -6 6 5 6 9 1 17 6 17 11 0 6 5 10 10 10
6 0 10 -4 10 -10z m210 0 c0 -5 8 -10 18 -11 10 0 12 -3 5 -6 -7 -2 -13 -11
-13 -19 0 -8 -9 -14 -20 -14 -11 0 -20 6 -20 14 0 8 -6 17 -12 19 -8 3 -6 6 5
6 9 1 17 6 17 11 0 6 5 10 10 10 6 0 10 -4 10 -10z m210 0 c0 -5 8 -10 18 -11
10 0 12 -3 5 -6 -7 -2 -13 -11 -13 -19 0 -8 -9 -14 -20 -14 -11 0 -20 6 -20
14 0 8 -6 17 -12 19 -8 3 -6 6 5 6 9 1 17 6 17 11 0 6 5 10 10 10 6 0 10 -4
10 -10z m210 0 c0 -5 8 -10 18 -11 10 0 12 -3 5 -6 -7 -2 -13 -11 -13 -19 0
-8 -9 -14 -20 -14 -11 0 -20 6 -20 14 0 8 -6 17 -12 19 -8 3 -6 6 5 6 9 1 17
6 17 11 0 6 5 10 10 10 6 0 10 -4 10 -10z m210 0 c0 -5 8 -10 18 -11 10 0 12
-3 5 -6 -7 -2 -13 -11 -13 -19 0 -8 -9 -14 -20 -14 -11 0 -20 6 -20 14 0 8 -6
17 -12 19 -8 3 -6 6 5 6 9 1 17 6 17 11 0 6 5 10 10 10 6 0 10 -4 10 -10z
m210 0 c0 -5 8 -10 18 -11 10 0 12 -3 5 -6 -7 -2 -13 -11 -13 -19 0 -8 -9 -14
-20 -14 -11 0 -20 6 -20 14 0 8 -6 17 -12 19 -8 3 -6 6 5 6 9 1 17 6 17 11 0
6 5 10 10 10 6 0 10 -4 10 -10z m210 0 c0 -5 8 -10 18 -11 10 0 12 -3 5 -6 -7
-2 -13 -11 -13 -19 0 -8 -9 -14 -20 -14 -11 0 -20 6 -20 14 0 8 -6 17 -12 19
-8 3 -6 6 5 6 9 1 17 6 17 11 0 6 5 10 10 10 6 0 10 -4 10 -10z m210 0 c0 -5
8 -10 18 -11 10 0 12 -3 5 -6 -7 -2 -13 -11 -13 -19 0 -8 -9 -14 -20 -14 -11
0 -20 6 -20 14 0 8 -6 17 -12 19 -8 3 -6 6 5 6 9 1 17 6 17 11 0 6 5 10 10 10
6 0 10 -4 10 -10z m210 0 c0 -5 8 -10 18 -11 10 0 12 -3 5 -6 -7 -2 -13 -11
-13 -19 0 -8 -9 -14 -20 -14 -11 0 -20 6 -20 14 0 8 -6 17 -12 19 -8 3 -6 6 5
6 9 1 17 6 17 11 0 6 5 10 10 10 6 0 10 -4 10 -10z"/>
<path d="M0 3854 l0 -86 28 53 c19 37 43 64 76 87 l48 32 -76 0 -76 0 0 -86z"/>
<path d="M0 3450 l0 -184 26 53 c27 53 85 106 131 117 29 8 29 20 0 28 -46 11
-104 64 -131 117 l-26 53 0 -184z"/>
<path d="M542 2765 c-33 -32 -33 -34 -26 -94 7 -69 21 -88 30 -42 4 19 13 31
23 31 30 0 80 39 87 67 12 55 13 58 29 37 32 -43 1 -117 -55 -129 -25 -5 -30
-12 -30 -36 0 -16 1 -32 3 -36 3 -10 47 -10 47 -1 0 14 114 4 129 -11 20 -18
96 -9 122 15 16 14 22 16 28 5 6 -9 18 -11 39 -6 19 4 38 1 51 -7 17 -11 25
-10 43 1 16 10 23 10 26 2 2 -6 15 -11 28 -11 14 0 23 4 20 8 -3 5 20 17 52
26 39 13 57 15 60 7 5 -15 38 -14 87 3 27 10 42 11 46 4 4 -6 18 -8 33 -4 16
4 26 2 26 -4 0 -17 52 -33 60 -19 6 8 13 8 28 0 12 -6 36 -11 54 -10 18 1 50
-3 70 -9 25 -6 40 -6 47 1 6 6 13 8 16 5 3 -3 -1 -13 -10 -22 -15 -15 -15 -17
-1 -22 9 -3 24 -3 34 1 11 5 13 9 5 12 -26 9 -12 21 25 21 21 0 61 10 90 21
51 20 52 20 98 1 47 -21 64 -19 64 6 0 8 4 14 8 14 5 0 9 6 9 14 0 24 25 76
34 70 5 -3 6 1 3 9 -8 21 20 39 50 31 49 -12 22 -71 -29 -62 -27 6 -35 -9 -10
-18 8 -4 15 -16 15 -28 1 -19 2 -18 16 7 14 27 34 37 34 17 0 -5 -5 -10 -12
-10 -6 0 -3 -6 8 -14 14 -11 16 -18 8 -26 -17 -17 -5 -56 19 -67 12 -5 54 -20
92 -33 39 -12 75 -26 80 -30 6 -4 22 -10 38 -14 27 -6 27 -6 27 44 l0 50 90 0
90 0 0 90 0 90 -90 0 -90 0 0 45 0 45 -775 0 -776 0 -29 -22 -30 -22 -30 22
c-25 19 -41 22 -112 21 -79 -2 -85 -3 -116 -34z m78 11 c0 -11 -19 -15 -25 -6
-3 5 1 10 9 10 9 0 16 -2 16 -4z m-76 -50 c-3 -9 -10 -16 -15 -16 -14 0 -11
28 4 33 16 6 19 3 11 -17z m1146 -66 c0 -5 -4 -10 -10 -10 -5 0 -10 5 -10 10
0 6 5 10 10 10 6 0 10 -4 10 -10z"/>
<path d="M300 2650 c0 -55 3 -100 6 -100 10 0 173 94 173 100 0 6 -163 100
-173 100 -3 0 -6 -45 -6 -100z"/>
<path d="M1 2548 c-1 -16 4 -28 9 -28 12 0 12 8 0 35 -8 18 -9 17 -9 -7z"/>
<path d="M2100 2480 c0 -5 6 -10 14 -10 8 0 18 5 21 10 3 6 -3 10 -14 10 -12
0 -21 -4 -21 -10z"/>
<path d="M523 2413 c15 -2 39 -2 55 0 15 2 2 4 -28 4 -30 0 -43 -2 -27 -4z"/>
<path d="M663 2413 c9 -2 25 -2 35 0 9 3 1 5 -18 5 -19 0 -27 -2 -17 -5z"/>
<path d="M828 2413 c6 -2 18 -2 25 0 6 3 1 5 -13 5 -14 0 -19 -2 -12 -5z"/>
<path d="M983 2413 c9 -2 23 -2 30 0 6 3 -1 5 -18 5 -16 0 -22 -2 -12 -5z"/>
<path d="M1158 2413 c17 -2 47 -2 65 0 17 2 3 4 -33 4 -36 0 -50 -2 -32 -4z"/>
<path d="M1318 2413 c12 -2 32 -2 45 0 12 2 2 4 -23 4 -25 0 -35 -2 -22 -4z"/>
<path d="M1503 2413 c9 -2 25 -2 35 0 9 3 1 5 -18 5 -19 0 -27 -2 -17 -5z"/>
<path d="M1693 2413 c15 -2 39 -2 55 0 15 2 2 4 -28 4 -30 0 -43 -2 -27 -4z"/>
<path d="M2118 2413 c57 -2 147 -2 200 0 53 1 7 3 -103 3 -110 0 -154 -2 -97
-3z"/>
<path d="M1753 2324 c-44 -34 -43 -64 1 -98 26 -20 46 -26 83 -26 41 0 50 -4
60 -25 l11 -25 -60 0 c-50 0 -67 -5 -95 -26 -44 -33 -43 -64 1 -98 26 -20 46
-26 83 -26 40 0 50 -4 58 -22 l10 -23 343 -3 342 -2 0 200 0 200 -402 0 -403
0 -32 -26z m185 -106 c9 -9 15 -9 24 0 7 7 16 12 20 12 15 0 8 -27 -12 -45
-19 -17 -21 -17 -40 0 -20 18 -27 45 -12 45 4 0 13 -5 20 -12z m27 -178 c3 6
11 8 16 4 5 -3 6 -11 2 -17 -4 -7 -6 -19 -5 -28 2 -11 -6 -16 -26 -17 -27 -1
-29 2 -27 31 4 42 3 41 19 28 10 -8 16 -9 21 -1z"/>
<path d="M0 2140 l0 -200 59 0 58 0 52 69 c101 136 245 241 409 298 l97 33
-337 0 -338 0 0 -200z"/>
<path d="M550 1475 c0 -272 2 -495 5 -495 8 0 856 492 853 495 -5 4 -813 472
-835 484 l-23 12 0 -496z"/>
<path d="M420 565 l0 -65 1085 0 1085 0 0 65 0 65 -1085 0 -1085 0 0 -65z"/>
<path d="M0 555 c0 -36 2 -65 5 -65 3 0 24 17 46 38 36 32 48 38 102 42 l62 5
-25 23 c-21 19 -35 22 -107 22 l-83 0 0 -65z"/>
<path d="M420 380 l0 -80 -210 0 -210 0 0 -150 0 -150 1295 0 1295 0 0 230 0
230 -1085 0 -1085 0 0 -80z"/>
<path d="M0 393 l0 -56 23 19 c12 10 27 24 33 32 7 7 35 15 63 19 49 6 51 7
35 24 -14 15 -32 19 -86 19 l-68 0 0 -57z"/>
</g>
</svg>
